<svg width="48" height="36" viewBox="0 0 48 36" fill="none" xmlns="http://www.w3.org/2000/svg">
<path d="M44.8283 15.6645C45.8948 17.0595 45.8948 18.9427 44.8283 20.3355C41.469 24.7207 33.4095 33.75 24 33.75C14.5905 33.75 6.531 24.7207 3.17175 20.3355C2.65286 19.6675 2.37119 18.8458 2.37119 18C2.37119 17.1542 2.65286 16.3325 3.17175 15.6645C6.531 11.2792 14.5905 2.25 24 2.25C33.4095 2.25 41.469 11.2792 44.8283 15.6645V15.6645Z" stroke="#090D81" stroke-width="4" stroke-linecap="round" stroke-linejoin="round"/>
<path d="M44.8283 15.6645C45.8948 17.0595 45.8948 18.9427 44.8283 20.3355C41.469 24.7207 33.4095 33.75 24 33.75C14.5905 33.75 6.531 24.7207 3.17175 20.3355C2.65286 19.6675 2.37119 18.8458 2.37119 18C2.37119 17.1542 2.65286 16.3325 3.17175 15.6645C6.531 11.2792 14.5905 2.25 24 2.25C33.4095 2.25 41.469 11.2792 44.8283 15.6645V15.6645Z" stroke="black" stroke-opacity="0.2" stroke-width="4" stroke-linecap="round" stroke-linejoin="round"/>
<path d="M24 24.75C27.7279 24.75 30.75 21.7279 30.75 18C30.75 14.2721 27.7279 11.25 24 11.25C20.2721 11.25 17.25 14.2721 17.25 18C17.25 21.7279 20.2721 24.75 24 24.75Z" stroke="#090D81" stroke-width="4" stroke-linecap="round" stroke-linejoin="round"/>
<path d="M24 24.75C27.7279 24.75 30.75 21.7279 30.75 18C30.75 14.2721 27.7279 11.25 24 11.25C20.2721 11.25 17.25 14.2721 17.25 18C17.25 21.7279 20.2721 24.75 24 24.75Z" stroke="black" stroke-opacity="0.2" stroke-width="4" stroke-linecap="round" stroke-linejoin="round"/>
</svg>
