<svg width="29" height="29" viewBox="0 0 29 29" fill="none" xmlns="http://www.w3.org/2000/svg">
<path d="M25.2657 10.7951L25.2656 10.795L17.1173 3.13005C17.1173 3.13002 17.1173 3.12999 17.1172 3.12997C16.4093 2.4639 15.4724 2.09442 14.5006 2.09442C13.5289 2.09442 12.5921 2.46388 11.8841 3.1299C11.8841 3.12995 11.884 3.13 11.8839 3.13005L3.73444 10.7949L3.73428 10.7951C3.10824 11.3841 2.60902 12.0938 2.26763 12.8813C1.92623 13.6689 1.75 14.5175 1.75 15.3754V23.8959C1.75 24.9026 2.15391 25.8656 2.8689 26.5737L3.7485 25.6856L2.86891 26.5737C3.58349 27.2814 4.55014 27.6769 5.55556 27.6769H23.4444C24.4499 27.6769 25.4165 27.2814 26.1311 26.5737C26.8461 25.8656 27.25 24.9026 27.25 23.8959V15.3754C27.25 14.5175 27.0738 13.6689 26.7324 12.8813C26.391 12.0938 25.8918 11.3841 25.2657 10.7951Z" stroke="black" stroke-width="2.5" stroke-linecap="round" stroke-linejoin="round"/>
<path d="M18.3333 27.6769C19.0237 27.6769 19.5833 27.1172 19.5833 26.4269V18.8339C19.5833 17.8273 19.1794 16.8643 18.4644 16.1561C17.7498 15.4484 16.7832 15.053 15.7778 15.053H13.2222C12.2168 15.053 11.2502 15.4484 10.5356 16.1561C9.82057 16.8643 9.41667 17.8273 9.41667 18.8339V26.4269C9.41667 27.1172 9.97631 27.6769 10.6667 27.6769H18.3333Z" stroke="black" stroke-width="2.5" stroke-linecap="round" stroke-linejoin="round"/>
</svg>
