<svg width="36" height="40" viewBox="0 0 36 40" fill="none" xmlns="http://www.w3.org/2000/svg">
<path d="M12.8095 31.25C12.8095 31.9375 12.2381 32.5 11.5397 32.5C10.8412 32.5 10.2698 31.9375 10.2698 31.25V15C10.2698 14.3125 10.8412 13.75 11.5397 13.75C12.2381 13.75 12.8095 14.3125 12.8095 15V31.25ZM19.1587 31.25C19.1587 31.9375 18.5873 32.5 17.8889 32.5C17.1904 32.5 16.619 31.9375 16.619 31.25V15C16.619 14.3125 17.1904 13.75 17.8889 13.75C18.5873 13.75 19.1587 14.3125 19.1587 15V31.25ZM25.5079 31.25C25.5079 31.9375 24.9365 32.5 24.2381 32.5C23.5397 32.5 22.9682 31.9375 22.9682 31.25V15C22.9682 14.3125 23.5397 13.75 24.2381 13.75C24.9365 13.75 25.5079 14.3125 25.5079 15V31.25ZM25.3095 1.94844L28.2222 6.25H33.7619C34.8174 6.25 35.6666 7.08984 35.6666 8.125C35.6666 9.16406 34.8174 10 33.7619 10H33.127V33.75C33.127 37.2031 30.2857 40 26.7777 40H8.99997C5.49362 40 2.65077 37.2031 2.65077 33.75V10H2.01585C0.964258 10 0.111084 9.16406 0.111084 8.125C0.111084 7.08984 0.964258 6.25 2.01585 6.25H7.55712L10.4682 1.94844C11.2936 0.731016 12.6825 0 14.1666 0H21.6111C23.0952 0 24.4841 0.731094 25.3095 1.94844ZM12.1349 6.25H23.6428L22.1349 4.02813C22.0158 3.85469 21.8174 3.75 21.6111 3.75H14.1666C13.9603 3.75 13.6904 3.85469 13.6428 4.02813L12.1349 6.25ZM6.46029 33.75C6.46029 35.1328 7.59759 36.25 8.99997 36.25H26.7777C28.1825 36.25 29.3174 35.1328 29.3174 33.75V10H6.46029V33.75Z" fill="#090D81" style="mix-blend-mode:darken"/>
</svg>
